<mxfile host="app.diagrams.net" agent="Mozilla/5.0 (Windows NT 10.0; Win64; x64; rv:133.0) Gecko/20100101 Firefox/133.0" version="25.0.3">
  <diagram name="Page-1" id="YE2b3-Wm6ofZwqIOuOVP">
    <mxGraphModel dx="1235" dy="1766" grid="1" gridSize="10" guides="1" tooltips="1" connect="1" arrows="1" fold="1" page="1" pageScale="1" pageWidth="850" pageHeight="1100" math="0" shadow="0">
      <root>
        <mxCell id="0" />
        <mxCell id="1" parent="0" />
        <mxCell id="dfRw2eh3CHr02bBg0ckn-13" style="rounded=0;orthogonalLoop=1;jettySize=auto;html=1;entryX=0;entryY=0.5;entryDx=0;entryDy=0;endArrow=none;endFill=0;" edge="1" parent="1" source="dfRw2eh3CHr02bBg0ckn-1" target="dfRw2eh3CHr02bBg0ckn-11">
          <mxGeometry relative="1" as="geometry" />
        </mxCell>
        <mxCell id="dfRw2eh3CHr02bBg0ckn-19" style="rounded=0;orthogonalLoop=1;jettySize=auto;html=1;entryX=0;entryY=0.5;entryDx=0;entryDy=0;endArrow=none;endFill=0;" edge="1" parent="1" source="dfRw2eh3CHr02bBg0ckn-1" target="dfRw2eh3CHr02bBg0ckn-7">
          <mxGeometry relative="1" as="geometry" />
        </mxCell>
        <mxCell id="dfRw2eh3CHr02bBg0ckn-1" value="Cliente" style="shape=umlActor;verticalLabelPosition=bottom;verticalAlign=top;html=1;outlineConnect=0;" vertex="1" parent="1">
          <mxGeometry x="170" y="150" width="30" height="60" as="geometry" />
        </mxCell>
        <mxCell id="dfRw2eh3CHr02bBg0ckn-20" style="rounded=0;orthogonalLoop=1;jettySize=auto;html=1;entryX=0;entryY=0.5;entryDx=0;entryDy=0;endArrow=none;endFill=0;" edge="1" parent="1" source="dfRw2eh3CHr02bBg0ckn-4" target="dfRw2eh3CHr02bBg0ckn-7">
          <mxGeometry relative="1" as="geometry" />
        </mxCell>
        <mxCell id="dfRw2eh3CHr02bBg0ckn-27" style="rounded=0;orthogonalLoop=1;jettySize=auto;html=1;entryX=0;entryY=0.5;entryDx=0;entryDy=0;endArrow=none;endFill=0;" edge="1" parent="1" source="dfRw2eh3CHr02bBg0ckn-4" target="dfRw2eh3CHr02bBg0ckn-26">
          <mxGeometry relative="1" as="geometry" />
        </mxCell>
        <mxCell id="dfRw2eh3CHr02bBg0ckn-31" style="rounded=0;orthogonalLoop=1;jettySize=auto;html=1;entryX=0;entryY=0.5;entryDx=0;entryDy=0;endArrow=none;endFill=0;" edge="1" parent="1" source="dfRw2eh3CHr02bBg0ckn-4" target="dfRw2eh3CHr02bBg0ckn-30">
          <mxGeometry relative="1" as="geometry" />
        </mxCell>
        <mxCell id="dfRw2eh3CHr02bBg0ckn-35" style="rounded=0;orthogonalLoop=1;jettySize=auto;html=1;entryX=0;entryY=0.5;entryDx=0;entryDy=0;endArrow=none;endFill=0;" edge="1" parent="1" source="dfRw2eh3CHr02bBg0ckn-4" target="dfRw2eh3CHr02bBg0ckn-34">
          <mxGeometry relative="1" as="geometry" />
        </mxCell>
        <mxCell id="dfRw2eh3CHr02bBg0ckn-4" value="Técnico comercial" style="shape=umlActor;verticalLabelPosition=bottom;verticalAlign=top;html=1;outlineConnect=0;" vertex="1" parent="1">
          <mxGeometry x="170" y="270" width="30" height="60" as="geometry" />
        </mxCell>
        <mxCell id="dfRw2eh3CHr02bBg0ckn-21" style="rounded=0;orthogonalLoop=1;jettySize=auto;html=1;entryX=0;entryY=0.5;entryDx=0;entryDy=0;endArrow=none;endFill=0;exitX=0.5;exitY=0;exitDx=0;exitDy=0;exitPerimeter=0;" edge="1" parent="1" source="dfRw2eh3CHr02bBg0ckn-5" target="dfRw2eh3CHr02bBg0ckn-7">
          <mxGeometry relative="1" as="geometry" />
        </mxCell>
        <mxCell id="dfRw2eh3CHr02bBg0ckn-23" style="rounded=0;orthogonalLoop=1;jettySize=auto;html=1;entryX=0;entryY=0.5;entryDx=0;entryDy=0;endArrow=none;endFill=0;" edge="1" parent="1" source="dfRw2eh3CHr02bBg0ckn-5" target="dfRw2eh3CHr02bBg0ckn-22">
          <mxGeometry relative="1" as="geometry" />
        </mxCell>
        <mxCell id="dfRw2eh3CHr02bBg0ckn-5" value="Agente de aseguradora" style="shape=umlActor;verticalLabelPosition=bottom;verticalAlign=top;html=1;outlineConnect=0;" vertex="1" parent="1">
          <mxGeometry x="170" y="430" width="30" height="60" as="geometry" />
        </mxCell>
        <mxCell id="dfRw2eh3CHr02bBg0ckn-7" value="Iniciar Sesión" style="ellipse;whiteSpace=wrap;html=1;" vertex="1" parent="1">
          <mxGeometry x="470" y="-40" width="120" height="80" as="geometry" />
        </mxCell>
        <mxCell id="dfRw2eh3CHr02bBg0ckn-14" style="rounded=0;orthogonalLoop=1;jettySize=auto;html=1;entryX=0.5;entryY=1;entryDx=0;entryDy=0;endArrow=classic;endFill=1;dashed=1;exitX=1;exitY=0.5;exitDx=0;exitDy=0;" edge="1" parent="1" source="dfRw2eh3CHr02bBg0ckn-11" target="dfRw2eh3CHr02bBg0ckn-7">
          <mxGeometry relative="1" as="geometry">
            <mxPoint x="459.9992070641158" y="177.7196133433299" as="sourcePoint" />
            <mxPoint x="620.03" y="480" as="targetPoint" />
          </mxGeometry>
        </mxCell>
        <mxCell id="dfRw2eh3CHr02bBg0ckn-15" value="&lt;div&gt;&amp;lt;&amp;lt;include&amp;gt;&amp;gt;&lt;/div&gt;" style="edgeLabel;html=1;align=center;verticalAlign=middle;resizable=0;points=[];" vertex="1" connectable="0" parent="dfRw2eh3CHr02bBg0ckn-14">
          <mxGeometry x="0.2264" y="-4" relative="1" as="geometry">
            <mxPoint x="-46" y="4" as="offset" />
          </mxGeometry>
        </mxCell>
        <mxCell id="dfRw2eh3CHr02bBg0ckn-11" value="Consultar ofertas personalzadas" style="ellipse;whiteSpace=wrap;html=1;" vertex="1" parent="1">
          <mxGeometry x="365" y="140" width="120" height="80" as="geometry" />
        </mxCell>
        <mxCell id="dfRw2eh3CHr02bBg0ckn-24" style="rounded=0;orthogonalLoop=1;jettySize=auto;html=1;entryX=0.5;entryY=1;entryDx=0;entryDy=0;dashed=1;exitX=1;exitY=0.5;exitDx=0;exitDy=0;" edge="1" parent="1" source="dfRw2eh3CHr02bBg0ckn-22" target="dfRw2eh3CHr02bBg0ckn-7">
          <mxGeometry relative="1" as="geometry" />
        </mxCell>
        <mxCell id="dfRw2eh3CHr02bBg0ckn-25" value="&amp;lt;&amp;lt;include&amp;gt;&amp;gt;" style="edgeLabel;html=1;align=center;verticalAlign=middle;resizable=0;points=[];" vertex="1" connectable="0" parent="dfRw2eh3CHr02bBg0ckn-24">
          <mxGeometry x="-0.2144" y="-1" relative="1" as="geometry">
            <mxPoint x="-54" y="162" as="offset" />
          </mxGeometry>
        </mxCell>
        <mxCell id="dfRw2eh3CHr02bBg0ckn-22" value="&lt;div&gt;Consultar ofertas de la aseguradora&lt;/div&gt;" style="ellipse;whiteSpace=wrap;html=1;" vertex="1" parent="1">
          <mxGeometry x="365" y="540" width="120" height="80" as="geometry" />
        </mxCell>
        <mxCell id="dfRw2eh3CHr02bBg0ckn-28" style="rounded=0;orthogonalLoop=1;jettySize=auto;html=1;entryX=0.5;entryY=1;entryDx=0;entryDy=0;dashed=1;exitX=1;exitY=0.5;exitDx=0;exitDy=0;" edge="1" parent="1" source="dfRw2eh3CHr02bBg0ckn-26" target="dfRw2eh3CHr02bBg0ckn-7">
          <mxGeometry relative="1" as="geometry" />
        </mxCell>
        <mxCell id="dfRw2eh3CHr02bBg0ckn-29" value="&amp;lt;&amp;lt;include&amp;gt;&amp;gt;" style="edgeLabel;html=1;align=center;verticalAlign=middle;resizable=0;points=[];" vertex="1" connectable="0" parent="dfRw2eh3CHr02bBg0ckn-28">
          <mxGeometry x="-0.3443" y="3" relative="1" as="geometry">
            <mxPoint x="-37" y="29" as="offset" />
          </mxGeometry>
        </mxCell>
        <mxCell id="dfRw2eh3CHr02bBg0ckn-26" value="Registrar nuevo cliente" style="ellipse;whiteSpace=wrap;html=1;" vertex="1" parent="1">
          <mxGeometry x="365" y="240" width="120" height="80" as="geometry" />
        </mxCell>
        <mxCell id="dfRw2eh3CHr02bBg0ckn-32" style="rounded=0;orthogonalLoop=1;jettySize=auto;html=1;entryX=0.5;entryY=1;entryDx=0;entryDy=0;dashed=1;exitX=1;exitY=0.5;exitDx=0;exitDy=0;" edge="1" parent="1" source="dfRw2eh3CHr02bBg0ckn-30" target="dfRw2eh3CHr02bBg0ckn-7">
          <mxGeometry relative="1" as="geometry" />
        </mxCell>
        <mxCell id="dfRw2eh3CHr02bBg0ckn-33" value="&amp;lt;&amp;lt;include&amp;gt;&amp;gt;" style="edgeLabel;html=1;align=center;verticalAlign=middle;resizable=0;points=[];" vertex="1" connectable="0" parent="dfRw2eh3CHr02bBg0ckn-32">
          <mxGeometry x="-0.2969" relative="1" as="geometry">
            <mxPoint x="-51" y="104" as="offset" />
          </mxGeometry>
        </mxCell>
        <mxCell id="dfRw2eh3CHr02bBg0ckn-37" style="rounded=0;orthogonalLoop=1;jettySize=auto;html=1;dashed=1;exitX=1;exitY=0.5;exitDx=0;exitDy=0;" edge="1" parent="1" source="dfRw2eh3CHr02bBg0ckn-39" target="dfRw2eh3CHr02bBg0ckn-36">
          <mxGeometry relative="1" as="geometry">
            <mxPoint x="780" y="350" as="sourcePoint" />
          </mxGeometry>
        </mxCell>
        <mxCell id="dfRw2eh3CHr02bBg0ckn-38" value="&amp;lt;&amp;lt;include&amp;gt;&amp;gt;" style="edgeLabel;html=1;align=center;verticalAlign=middle;resizable=0;points=[];" vertex="1" connectable="0" parent="dfRw2eh3CHr02bBg0ckn-37">
          <mxGeometry x="0.4621" y="2" relative="1" as="geometry">
            <mxPoint x="-31" y="-8" as="offset" />
          </mxGeometry>
        </mxCell>
        <mxCell id="dfRw2eh3CHr02bBg0ckn-30" value="Ofrecer oferta más ventajosa" style="ellipse;whiteSpace=wrap;html=1;" vertex="1" parent="1">
          <mxGeometry x="365" y="440" width="120" height="80" as="geometry" />
        </mxCell>
        <mxCell id="dfRw2eh3CHr02bBg0ckn-42" style="rounded=0;orthogonalLoop=1;jettySize=auto;html=1;dashed=1;exitX=1;exitY=0.5;exitDx=0;exitDy=0;" edge="1" parent="1" source="dfRw2eh3CHr02bBg0ckn-34">
          <mxGeometry relative="1" as="geometry">
            <mxPoint x="530" y="40" as="targetPoint" />
          </mxGeometry>
        </mxCell>
        <mxCell id="dfRw2eh3CHr02bBg0ckn-43" value="&amp;lt;&amp;lt;include&amp;gt;&amp;gt;" style="edgeLabel;html=1;align=center;verticalAlign=middle;resizable=0;points=[];" vertex="1" connectable="0" parent="dfRw2eh3CHr02bBg0ckn-42">
          <mxGeometry x="-0.7867" y="2" relative="1" as="geometry">
            <mxPoint x="-38" y="-14" as="offset" />
          </mxGeometry>
        </mxCell>
        <mxCell id="dfRw2eh3CHr02bBg0ckn-34" value="Registrar datos del bien" style="ellipse;whiteSpace=wrap;html=1;" vertex="1" parent="1">
          <mxGeometry x="365" y="340" width="120" height="80" as="geometry" />
        </mxCell>
        <mxCell id="dfRw2eh3CHr02bBg0ckn-36" value="Solicitar ofertas a aseguradoras" style="ellipse;whiteSpace=wrap;html=1;" vertex="1" parent="1">
          <mxGeometry x="860" y="440" width="120" height="80" as="geometry" />
        </mxCell>
        <mxCell id="dfRw2eh3CHr02bBg0ckn-39" value="Seleccionar oferta más ventajosa" style="ellipse;whiteSpace=wrap;html=1;" vertex="1" parent="1">
          <mxGeometry x="610" y="440" width="120" height="80" as="geometry" />
        </mxCell>
        <mxCell id="dfRw2eh3CHr02bBg0ckn-40" style="rounded=0;orthogonalLoop=1;jettySize=auto;html=1;dashed=1;exitX=1;exitY=0.5;exitDx=0;exitDy=0;entryX=0;entryY=0.5;entryDx=0;entryDy=0;" edge="1" parent="1" source="dfRw2eh3CHr02bBg0ckn-30" target="dfRw2eh3CHr02bBg0ckn-39">
          <mxGeometry relative="1" as="geometry">
            <mxPoint x="580" y="379.5" as="sourcePoint" />
            <mxPoint x="710" y="379.5" as="targetPoint" />
          </mxGeometry>
        </mxCell>
        <mxCell id="dfRw2eh3CHr02bBg0ckn-41" value="&amp;lt;&amp;lt;include&amp;gt;&amp;gt;" style="edgeLabel;html=1;align=center;verticalAlign=middle;resizable=0;points=[];" vertex="1" connectable="0" parent="dfRw2eh3CHr02bBg0ckn-40">
          <mxGeometry x="0.4621" y="2" relative="1" as="geometry">
            <mxPoint x="-31" y="-8" as="offset" />
          </mxGeometry>
        </mxCell>
      </root>
    </mxGraphModel>
  </diagram>
</mxfile>
